<?xml version="1.0" encoding="utf-8"?>
<!-- Generator: Adobe Illustrator 21.0.2, SVG Export Plug-In . SVG Version: 6.00 Build 0)  -->
<svg version="1.1" id="Layer_1" xmlns="http://www.w3.org/2000/svg" xmlns:xlink="http://www.w3.org/1999/xlink" x="0px" y="0px"
	 viewBox="0 0 600 300" style="enable-background:new 0 0 600 300;" xml:space="preserve">
<style type="text/css">
	.st0{fill:#282828;}
</style>
<g>
	<path class="st0" d="M170,134.5h17c2.1,0,3.8,1.7,3.8,3.8v55.6c0,2.1-1.7,3.8-3.8,3.8h-17v-7.1c-5.7,6.6-12.4,9.6-21.4,9.6
		c-18,0-31-13.8-31-33.2c0-20.2,13.8-34.9,32.8-34.9c8.1,0,13.5,2.6,19.7,9.3V134.5z M139.7,166.6c0,9.7,6.6,17.2,15,17.2
		c8.6,0,15.6-7.9,15.6-17.5c0-10.1-6.4-17.1-15.4-17.1C146,149.3,139.7,156.5,139.7,166.6"/>
	<path class="st0" d="M284.8,134.5h17c2.1,0,3.8,1.7,3.8,3.8v55.6c0,2.1-1.7,3.8-3.8,3.8h-17v-7.1c-5.7,6.6-12.4,9.6-21.4,9.6
		c-18,0-31-13.8-31-33.2c0-20.2,13.8-34.9,32.8-34.9c8.1,0,13.5,2.6,19.7,9.3V134.5z M254.5,166.6c0,9.7,6.6,17.2,15,17.2
		c8.6,0,15.6-7.9,15.6-17.5c0-10.1-6.4-17.1-15.4-17.1C260.8,149.3,254.5,156.5,254.5,166.6"/>
	<path class="st0" d="M72.7,106.7v19.6h15.7v33.4c0,10.6-1.1,12.9-4.6,15.6c-2.5,1.9-6.7,3-11.3,3H61v20.4h7.8v0
		c6.4,0,12.1-0.1,16.8-0.7c5.7-0.7,11.2-2.8,15.6-6.5c7.1-5.8,9.4-13.6,9.4-28v-53c0-2.1-1.7-3.8-3.8-3.8H72.7z"/>
	<path class="st0" d="M202.8,197.7v-91h17c2.1,0,3.8,1.7,3.8,3.8v83.4c0,2.1-1.7,3.8-3.8,3.8H202.8z"/>
	<path class="st0" d="M539,151.8v-17.2h-11.2v-16h-17c-2.1,0-3.8,1.7-3.8,3.8v12.2h-18v-8.2c0-4.6,2.3-7,7.4-7.5V99.7
		c-19.1-0.5-28.2,8.1-28.1,26.7v8.2h-8v13.4c0,2.1,1.7,3.8,3.8,3.8h4.2v46h20.7v-46h11.6v0h6.4v32.9c-0.1,9.1,3.1,12.8,12,13.1H539
		v-17.2h-6.1c-4-0.3-5-1.1-5-4.1v-24.7H539z"/>
	<path class="st0" d="M422.2,131.2c-19.1,0-34.7,15.5-34.7,34.7c0,19.1,15.5,34.7,34.7,34.7c19.1,0,34.7-15.5,34.7-34.7
		C456.9,146.7,441.4,131.2,422.2,131.2 M422.2,181.7c-8.7,0-15.8-7.1-15.8-15.8c0-8.7,7.1-15.8,15.8-15.8c8.7,0,15.8,7.1,15.8,15.8
		C438,174.6,431,181.7,422.2,181.7"/>
	<path class="st0" d="M354,178c4.3-3.1,5.2-9.1,2.2-13.4l-20.4-28.3c-0.1-0.1-0.1-0.2-0.2-0.3l-0.1-0.2c-2.5-4.5-2.2-10.1,1.1-14.1
		c5.6-6.9,15.7-6.3,20.5,0.4l6.2,8.6c0.9,1.2,2.3,2,3.9,2h11.2c0-18.4-14.9-33.3-33.3-33.3c-0.8,0-1.5,0-2.3,0.1
		c-10.5,0.7-19.9,6.7-25,16.1c-0.2,0.4-0.5,0.9-0.7,1.3c-4.8,9.7-3.5,21.4,2.9,30.1l20.8,28.8C343.8,180.1,349.8,181.1,354,178"/>
	<path class="st0" d="M378.2,183.1c4.8-9.7,3.5-21.4-2.9-30.2l-20.8-28.9c-3.1-4.3-9.1-5.2-13.4-2.2c-4,2.9-5.1,8.2-2.7,12.5
		l0.2,0.3l20.2,28c4.1,5.7,2.8,13.8-2.9,17.9c-2.3,1.6-4.9,2.4-7.5,2.4c-4,0-7.9-1.8-10.4-5.3l-6.1-8.5c-0.9-1.2-2.3-2-3.9-2h-11.2
		c0,18.4,14.9,33.3,33.3,33.3c0.8,0,1.5,0,2.3-0.1c10.5-0.7,19.9-6.7,25-16.1C377.8,184,378,183.6,378.2,183.1"/>
</g>
</svg>
